P3
60 40
255
0 0 0
0 0 0
0 0 0
0 0 0
0 0 0
0 0 0
0 0 0
0 0 0
0 0 0
0 0 0
0 0 0
0 0 0
0 0 0
0 0 0
0 0 0
0 0 0
0 0 0
0 0 0
0 0 0
0 0 0
0 0 0
0 0 0
0 0 0
0 0 0
0 0 0
0 0 0
0 0 0
0 0 0
0 0 0
0 0 0
0 0 0
0 0 0
0 0 0
0 0 0
0 0 0
0 0 0
0 0 0
0 0 0
0 0 0
0 0 0
0 0 0
0 0 0
0 0 0
0 0 0
0 0 0
0 0 0
0 0 0
0 0 0
0 0 0
0 0 0
0 0 0
0 0 0
0 0 0
0 0 0
0 0 0
0 0 0
0 0 0
0 0 0
0 0 0
0 0 0
0 0 0
0 0 0
0 0 0
0 0 0
0 0 0
0 0 0
0 0 0
0 0 0
0 0 0
0 0 0
0 0 0
0 0 0
0 0 0
0 0 0
0 0 0
0 0 0
0 0 0
0 0 0
0 0 0
0 0 0
0 0 0
0 0 0
0 0 0
0 0 0
0 0 0
0 0 0
0 0 0
0 0 0
0 0 0
0 0 0
0 0 0
0 0 0
0 0 0
0 0 0
0 0 0
0 0 0
0 0 0
0 0 0
0 0 0
0 0 0
0 0 0
0 0 0
0 0 0
0 0 0
0 0 0
0 0 0
0 0 0
0 0 0
0 0 0
0 0 0
0 0 0
0 0 0
0 0 0
0 0 0
0 0 0
0 0 0
0 0 0
0 0 0
0 0 0
0 0 0
0 0 0
0 0 0
0 0 0
0 0 0
0 0 0
0 0 0
0 0 0
0 0 0
0 0 0
0 0 0
0 0 0
0 0 0
0 0 0
0 0 0
0 0 0
0 0 0
0 0 0
0 0 0
0 0 0
0 0 0
0 0 0
0 0 0
0 0 0
0 0 0
0 0 0
0 0 0
0 0 0
0 0 0
0 0 0
0 0 0
0 0 0
0 0 0
0 0 0
0 0 0
0 0 0
0 0 0
0 0 0
0 0 0
0 0 0
0 0 0
0 0 0
0 0 0
0 0 0
0 0 0
0 0 0
0 0 0
0 0 0
0 0 0
0 0 0
0 0 0
0 0 0
0 0 0
0 0 0
0 0 0
0 0 0
0 0 0
0 0 0
0 0 0
0 0 0
0 0 0
0 0 0
0 0 0
0 0 0
0 0 0
0 0 0
0 0 0
0 0 0
0 0 0
0 0 0
0 0 0
0 0 0
0 0 0
0 0 0
0 0 0
0 0 0
0 0 0
0 0 0
0 0 0
0 0 0
0 0 0
0 0 0
0 0 0
0 0 0
0 0 0
0 0 0
0 0 0
0 0 0
0 0 0
0 0 0
0 0 0
0 0 0
0 0 0
0 0 0
0 0 0
0 0 0
0 0 0
0 0 0
0 0 0
0 0 0
0 0 0
0 0 0
0 0 0
0 0 0
0 0 0
0 0 0
0 0 0
0 0 0
0 0 0
0 0 0
0 0 0
0 0 0
0 0 0
0 0 0
0 0 0
0 0 0
0 0 0
0 0 0
0 0 0
0 0 0
0 0 0
0 0 0
0 0 0
0 0 0
0 0 0
0 0 0
0 0 0
0 0 0
0 0 0
0 0 0
0 0 0
0 0 0
0 0 0
0 0 0
0 0 0
0 0 0
0 0 0
0 0 0
0 0 0
0 0 0
0 0 0
0 0 0
0 0 0
0 0 0
0 0 0
0 0 0
0 0 0
0 0 0
0 0 0
0 0 0
0 0 0
0 0 0
0 0 0
0 0 0
0 0 0
0 0 0
0 0 0
0 0 0
0 0 0
0 0 0
0 0 0
0 0 0
0 0 0
0 0 0
0 0 0
0 0 0
0 0 0
0 0 0
0 0 0
0 0 0
0 0 0
0 0 0
0 0 0
0 0 0
0 0 0
0 0 0
0 0 0
0 0 0
0 0 0
0 0 0
0 0 0
0 0 0
0 0 0
0 0 0
0 0 0
0 0 0
0 0 0
0 0 0
0 0 0
0 0 0
0 0 0
0 0 0
0 0 0
0 0 0
0 0 0
0 0 0
0 0 0
0 0 0
0 0 0
0 0 0
0 0 0
0 0 0
0 0 0
0 0 0
0 0 0
0 0 0
0 0 0
0 0 0
0 0 0
0 0 0
0 0 0
0 0 0
0 0 0
0 0 0
0 0 0
0 0 0
0 0 0
0 0 0
0 0 0
0 0 0
0 0 0
0 0 0
0 0 0
0 0 0
0 0 0
0 0 0
0 0 0
0 0 0
0 0 0
0 0 0
0 0 0
0 0 0
0 0 0
0 0 0
0 0 0
0 0 0
0 0 0
0 0 0
0 0 0
0 0 0
0 0 0
0 0 0
0 0 0
0 0 0
0 0 0
0 0 0
0 0 0
0 0 0
0 0 0
0 0 0
0 0 0
0 0 0
0 0 0
0 0 0
0 0 0
0 0 0
0 0 0
0 0 0
0 0 0
0 0 0
0 0 0
0 0 0
0 0 0
0 0 0
0 0 0
0 0 0
0 0 0
0 0 0
0 0 0
0 0 0
0 0 0
0 0 0
0 0 0
0 0 0
0 0 0
0 0 0
0 0 0
0 0 0
0 0 0
0 0 0
0 0 0
0 0 0
0 0 0
0 0 0
0 0 0
0 0 0
0 0 0
0 0 0
0 0 0
0 0 0
0 0 0
0 0 0
0 0 0
0 0 0
0 0 0
0 0 0
0 0 0
0 0 0
0 0 0
0 0 0
0 0 0
0 0 0
0 0 0
0 0 0
0 0 0
0 0 0
0 0 0
0 0 0
0 0 0
0 0 0
0 0 0
0 0 0
0 0 0
0 0 0
0 0 0
0 0 0
0 0 0
0 0 0
0 0 0
0 0 0
0 0 0
0 0 0
0 0 0
0 0 0
0 0 0
0 0 0
0 0 0
0 0 0
0 0 0
0 0 0
0 0 0
0 0 0
0 0 0
0 0 0
0 0 0
0 0 0
0 0 0
0 0 0
0 0 0
0 0 0
0 0 0
0 0 0
0 0 0
0 0 0
0 0 0
0 0 0
0 0 0
0 0 0
0 0 0
0 0 0
0 0 0
0 0 0
0 0 0
0 0 0
0 0 0
0 0 0
0 0 0
0 0 0
0 0 0
0 0 0
0 0 0
0 0 0
0 0 0
0 0 0
0 0 0
0 0 0
0 0 0
0 0 0
0 0 0
0 0 0
0 0 0
0 0 0
0 0 0
0 0 0
0 0 0
0 0 0
0 0 0
0 0 0
0 0 0
0 0 0
0 0 0
0 0 0
0 0 0
0 0 0
0 0 0
0 0 0
0 0 0
0 0 0
0 0 0
0 0 0
0 0 0
0 0 0
0 0 0
0 0 0
0 0 0
0 0 0
0 0 0
0 0 0
0 0 0
0 0 0
0 0 0
0 0 0
0 0 0
0 0 0
0 0 0
0 0 0
0 0 0
0 0 0
0 0 0
0 0 0
0 0 0
0 0 0
0 0 0
0 0 0
0 0 0
0 0 0
0 0 0
0 0 0
0 0 0
0 0 0
0 0 0
0 0 0
0 0 0
0 0 0
0 0 0
0 0 0
0 0 0
0 0 0
0 0 0
0 0 0
0 0 0
0 0 0
0 0 0
0 0 0
0 0 0
0 0 0
0 0 0
0 0 0
0 0 0
0 0 0
0 0 0
0 0 0
0 0 0
0 0 0
0 0 0
0 0 0
0 0 0
0 0 0
0 0 0
0 0 0
0 0 0
0 0 0
0 0 0
0 0 0
0 0 0
0 0 0
0 0 0
0 0 0
0 0 0
0 0 0
0 0 0
0 0 0
0 0 0
0 0 0
0 0 0
0 0 0
0 0 0
0 0 0
0 0 0
0 0 0
0 0 0
0 0 0
0 0 0
0 0 0
0 0 0
0 0 0
0 0 0
0 0 0
0 0 0
0 0 0
0 0 0
0 0 0
0 0 0
0 0 0
0 0 0
0 0 0
0 0 0
0 0 0
0 0 0
0 0 0
0 0 0
0 0 0
0 0 0
0 0 0
0 0 0
0 0 0
0 0 0
0 0 0
0 0 0
0 0 0
0 0 0
0 0 0
0 0 0
0 0 0
0 0 0
0 0 0
0 0 0
0 0 0
0 0 0
0 0 0
0 0 0
0 0 0
0 0 0
0 0 0
0 0 0
0 0 0
0 0 0
0 0 0
0 0 0
0 0 0
0 0 0
0 0 0
0 0 0
0 0 0
0 0 0
0 0 0
0 0 0
0 0 0
0 0 0
0 0 0
0 0 0
0 0 0
0 0 0
0 0 0
0 0 0
0 0 0
0 0 0
0 0 0
0 0 0
0 0 0
0 0 0
0 0 0
0 0 0
0 0 0
0 0 0
0 0 0
0 0 0
0 0 0
0 0 0
0 0 0
0 0 0
0 0 0
0 0 0
0 0 0
0 0 0
0 0 0
0 0 0
0 0 0
0 0 0
0 0 0
0 0 0
0 0 0
0 0 0
0 0 0
0 0 0
0 0 0
0 0 0
0 0 0
0 0 0
0 0 0
0 0 0
0 0 0
0 0 0
0 0 0
0 0 0
0 0 0
0 0 0
0 0 0
0 0 0
0 0 0
0 0 0
0 0 0
0 0 0
0 0 0
0 0 0
0 0 0
0 0 0
0 0 0
0 0 0
0 0 0
0 0 0
0 0 0
0 0 0
0 0 0
0 0 0
0 0 0
0 0 0
0 0 0
0 0 0
0 0 0
0 0 0
0 0 0
0 0 0
0 0 0
0 0 0
0 0 0
0 0 0
0 0 0
0 0 0
0 0 0
0 0 0
0 0 0
0 0 0
0 0 0
0 0 0
0 0 0
0 0 0
0 0 0
0 0 0
0 0 0
0 0 0
0 0 0
0 0 0
0 0 0
0 0 0
0 0 0
0 0 0
0 0 0
0 0 0
0 0 0
0 0 0
0 0 0
0 0 0
0 0 0
0 0 0
0 0 0
0 0 0
0 0 0
0 0 0
0 0 0
0 0 0
0 0 0
0 0 0
0 0 0
0 0 0
0 0 0
0 0 0
0 0 0
0 0 0
0 0 0
0 0 0
0 0 0
0 0 0
0 0 0
0 0 0
0 0 0
0 0 0
0 0 0
0 0 0
0 0 0
0 0 0
0 0 0
0 0 0
0 0 0
0 0 0
0 0 0
0 0 0
0 0 0
0 0 0
0 0 0
0 0 0
0 0 0
0 0 0
0 0 0
0 0 0
0 0 0
0 0 0
0 0 0
0 0 0
0 0 0
0 0 0
0 0 0
0 0 0
0 0 0
0 0 0
0 0 0
0 0 0
0 0 0
0 0 0
0 0 0
0 0 0
0 0 0
0 0 0
0 0 0
0 0 0
0 0 0
0 0 0
0 0 0
0 0 0
0 0 0
0 0 0
0 0 0
0 0 0
0 0 0
0 0 0
0 0 0
0 0 0
0 0 0
0 0 0
0 0 0
0 0 0
0 0 0
0 0 0
0 0 0
0 0 0
0 0 0
0 0 0
0 0 0
0 0 0
0 0 0
0 0 0
0 0 0
0 0 0
0 0 0
0 0 0
0 0 0
0 0 0
0 0 0
0 0 0
0 0 0
0 0 0
0 0 0
0 0 0
0 0 0
0 0 0
0 0 0
0 0 0
0 0 0
0 0 0
0 0 0
0 0 0
0 0 0
0 0 0
0 0 0
0 0 0
0 0 0
0 0 0
0 0 0
0 0 0
0 0 0
0 0 0
0 0 0
0 0 0
0 0 0
0 0 0
0 0 0
0 0 0
0 0 0
0 0 0
0 0 0
0 0 0
0 0 0
0 0 0
0 0 0
0 0 0
0 0 0
0 0 0
0 0 0
0 0 0
0 0 0
0 0 0
0 0 0
0 0 0
0 0 0
0 0 0
0 0 0
0 0 0
0 0 0
0 0 0
0 0 0
0 0 0
0 0 0
0 0 0
0 0 0
0 0 0
0 0 0
0 0 0
0 0 0
0 0 0
0 0 0
0 0 0
0 0 0
0 0 0
0 0 0
0 0 0
0 0 0
0 0 0
0 0 0
0 0 0
0 0 0
0 0 0
0 0 0
0 0 0
0 0 0
0 0 0
0 0 0
0 0 0
0 0 0
172 43 43
195 48 48
212 53 53
225 56 56
235 58 58
241 60 60
0 0 0
0 0 0
0 0 0
0 0 0
0 0 0
0 0 0
0 0 0
0 0 0
0 0 0
0 0 0
0 0 0
0 0 0
0 0 0
0 0 0
0 0 0
0 0 0
0 0 0
0 0 0
0 0 0
0 0 0
0 0 0
0 0 0
0 0 0
0 0 0
0 0 0
0 0 0
0 0 0
0 0 0
0 0 0
0 0 0
0 0 0
0 0 0
0 0 0
0 0 0
0 0 0
0 0 0
0 0 0
0 0 0
0 0 0
0 0 0
0 0 0
0 0 0
0 0 0
0 0 0
0 0 0
0 0 0
0 0 0
0 0 0
0 0 0
0 0 0
0 0 0
0 0 0
0 0 0
151 37 37
176 44 44
194 48 48
210 52 52
222 55 55
233 58 58
241 60 60
245 61 61
0 0 0
0 0 0
0 0 0
0 0 0
0 0 0
0 0 0
0 0 0
0 0 0
0 0 0
0 0 0
0 0 0
0 0 0
0 0 0
0 0 0
0 0 0
0 0 0
0 0 0
0 0 0
0 0 0
0 0 0
0 0 0
0 0 0
0 0 0
0 0 0
0 0 0
0 0 0
0 0 0
0 0 0
0 0 0
0 0 0
0 0 0
0 0 0
0 0 0
0 0 0
0 0 0
0 0 0
0 0 0
0 0 0
0 0 0
0 0 0
0 0 0
0 0 0
0 0 0
0 0 0
0 0 0
0 0 0
0 0 0
0 0 0
0 0 0
0 0 0
0 0 0
118 29 29
150 37 37
172 43 43
189 47 47
203 50 50
216 54 54
235 58 58
235 58 58
241 60 60
241 60 60
0 0 0
0 0 0
0 0 0
0 0 0
0 0 0
0 0 0
0 0 0
0 0 0
0 0 0
0 0 0
0 0 0
0 0 0
0 0 0
0 0 0
0 0 0
0 0 0
0 0 0
0 0 0
0 0 0
0 0 0
0 0 0
0 0 0
0 0 0
0 0 0
0 0 0
0 0 0
0 0 0
0 0 0
0 0 0
0 0 0
0 0 0
0 0 0
0 0 0
0 0 0
0 0 0
0 0 0
0 0 0
0 0 0
0 0 0
0 0 0
0 0 0
0 0 0
0 0 0
0 0 0
0 0 0
0 0 0
0 0 0
0 0 0
0 0 0
0 0 0
116 29 29
143 35 35
164 41 41
181 45 45
195 48 48
207 51 51
225 56 56
237 59 59
233 58 58
235 58 58
0 0 0
0 0 0
0 0 0
0 0 0
0 0 0
0 0 0
0 0 0
0 0 0
0 0 0
0 0 0
0 0 0
0 0 0
0 0 0
0 0 0
0 0 0
0 0 0
0 0 0
0 0 0
0 0 0
0 0 0
0 0 0
0 0 0
0 0 0
0 0 0
0 0 0
0 0 0
0 0 0
0 0 0
0 0 0
0 0 0
0 0 0
0 0 0
0 0 0
0 0 0
0 0 0
0 0 0
0 0 0
0 0 0
0 0 0
0 0 0
0 0 0
0 0 0
0 0 0
0 0 0
0 0 0
0 0 0
0 0 0
0 0 0
0 0 0
102 25 25
107 26 26
133 33 33
153 38 38
170 42 42
184 46 46
197 49 49
207 51 51
216 54 54
222 55 55
225 56 56
208 52 52
0 0 0
0 0 0
0 0 0
0 0 0
0 0 0
0 0 0
0 0 0
0 0 0
0 0 0
0 0 0
0 0 0
0 0 0
0 0 0
0 0 0
0 0 0
0 0 0
0 0 0
0 0 0
0 0 0
0 0 0
0 0 0
0 0 0
0 0 0
0 0 0
231 231 231
231 231 231
231 231 231
231 231 231
231 231 231
231 231 231
231 231 231
231 231 231
231 231 231
231 231 231
231 231 231
231 231 231
231 231 231
231 231 231
231 231 231
231 231 231
231 231 231
231 231 231
231 231 231
231 231 231
231 231 231
231 231 231
231 231 231
231 231 231
102 25 25
102 25 25
120 30 30
141 35 35
158 39 39
172 43 43
184 46 46
195 48 48
203 50 50
209 52 52
212 53 53
194 48 48
231 231 231
231 231 231
231 231 231
231 231 231
231 231 231
231 231 231
231 231 231
231 231 231
231 231 231
231 231 231
231 231 231
231 231 231
231 231 231
231 231 231
231 231 231
231 231 231
231 231 231
231 231 231
231 231 231
231 231 231
231 231 231
231 231 231
231 231 231
231 231 231
231 231 231
231 231 231
231 231 231
231 231 231
231 231 231
231 231 231
231 231 231
231 231 231
231 231 231
231 231 231
231 231 231
231 231 231
231 231 231
231 231 231
231 231 231
231 231 231
231 231 231
231 231 231
231 231 231
231 231 231
231 231 231
231 231 231
231 231 231
231 231 231
231 231 231
102 25 25
104 26 26
126 31 31
143 35 35
158 39 39
170 42 42
180 45 45
188 47 47
194 48 48
195 48 48
231 231 231
231 231 231
231 231 231
231 231 231
231 231 231
231 231 231
231 231 231
231 231 231
231 231 231
231 231 231
231 231 231
231 231 231
231 231 231
231 231 231
231 231 231
231 231 231
231 231 231
231 231 231
231 231 231
231 231 231
231 231 231
231 231 231
231 231 231
231 231 231
231 231 231
231 231 231
231 231 231
231 231 231
231 231 231
231 231 231
231 231 231
231 231 231
231 231 231
231 231 231
231 231 231
231 231 231
231 231 231
231 231 231
231 231 231
231 231 231
231 231 231
231 231 231
231 231 231
231 231 231
231 231 231
231 231 231
231 231 231
231 231 231
231 231 231
231 231 231
102 25 25
102 25 25
107 26 26
126 31 31
141 35 35
153 38 38
163 40 40
171 42 42
175 43 43
172 43 43
231 231 231
231 231 231
231 231 231
231 231 231
231 231 231
231 231 231
231 231 231
231 231 231
231 231 231
231 231 231
231 231 231
231 231 231
231 231 231
231 231 231
231 231 231
231 231 231
231 231 231
231 231 231
231 231 231
231 231 231
231 231 231
231 231 231
231 231 231
231 231 231
231 231 231
231 231 231
231 231 231
231 231 231
231 231 231
231 231 231
231 231 231
231 231 231
231 231 231
231 231 231
231 231 231
231 231 231
231 231 231
231 231 231
231 231 231
231 231 231
231 231 231
231 231 231
231 231 231
231 231 231
231 231 231
231 231 231
231 231 231
231 231 231
231 231 231
231 231 231
231 231 231
102 25 25
102 25 25
104 26 26
120 30 30
133 33 33
142 35 35
149 37 37
150 37 37
231 231 231
231 231 231
231 231 231
231 231 231
231 231 231
231 231 231
231 231 231
231 231 231
231 231 231
231 231 231
231 231 231
231 231 231
231 231 231
231 231 231
231 231 231
231 231 231
231 231 231
231 231 231
231 231 231
231 231 231
231 231 231
231 231 231
231 231 231
231 231 231
231 231 231
231 231 231
231 231 231
231 231 231
231 231 231
231 231 231
231 231 231
231 231 231
231 231 231
231 231 231
231 231 231
231 231 231
231 231 231
231 231 231
231 231 231
231 231 231
231 231 231
231 231 231
231 231 231
231 231 231
231 231 231
231 231 231
231 231 231
231 231 231
231 231 231
231 231 231
231 231 231
231 231 231
231 231 231
102 25 25
102 25 25
102 25 25
105 26 26
114 28 28
116 29 29
231 231 231
231 231 231
231 231 231
231 231 231
231 231 231
231 231 231
231 231 231
231 231 231
231 231 231
231 231 231
231 231 231
231 231 231
231 231 231
231 231 231
231 231 231
231 231 231
231 231 231
231 231 231
231 231 231
231 231 231
231 231 231
231 231 231
231 231 231
231 231 231
231 231 231
231 231 231
231 231 231
231 231 231
231 231 231
231 231 231
231 231 231
231 231 231
231 231 231
231 231 231
231 231 231
231 231 231
231 231 231
231 231 231
231 231 231
231 231 231
231 231 231
231 231 231
231 231 231
231 231 231
231 231 231
231 231 231
231 231 231
231 231 231
231 231 231
231 231 231
231 231 231
231 231 231
231 231 231
231 231 231
231 231 231
231 231 231
231 231 231
231 231 231
231 231 231
231 231 231
231 231 231
231 231 231
231 231 231
231 231 231
231 231 231
231 231 231
231 231 231
231 231 231
231 231 231
231 231 231
231 231 231
231 231 231
231 231 231
231 231 231
231 231 231
231 231 231
231 231 231
231 231 231
231 231 231
231 231 231
231 231 231
231 231 231
231 231 231
231 231 231
231 231 231
231 231 231
231 231 231
231 231 231
231 231 231
231 231 231
231 231 231
231 231 231
231 231 231
231 231 231
231 231 231
231 231 231
231 231 231
231 231 231
231 231 231
231 231 231
231 231 231
231 231 231
231 231 231
231 231 231
231 231 231
231 231 231
231 231 231
127 127 127
127 127 127
127 127 127
231 231 231
231 231 231
231 231 231
231 231 231
231 231 231
231 231 231
231 231 231
231 231 231
231 231 231
231 231 231
231 231 231
231 231 231
231 231 231
231 231 231
231 231 231
231 231 231
231 231 231
231 231 231
231 231 231
231 231 231
231 231 231
231 231 231
231 231 231
231 231 231
231 231 231
231 231 231
231 231 231
231 231 231
231 231 231
231 231 231
231 231 231
231 231 231
231 231 231
231 231 231
231 231 231
231 231 231
231 231 231
231 231 231
231 231 231
231 231 231
231 231 231
231 231 231
231 231 231
231 231 231
231 231 231
231 231 231
231 231 231
231 231 231
231 231 231
231 231 231
231 231 231
231 231 231
231 231 231
231 231 231
231 231 231
127 127 127
127 127 127
127 127 127
127 127 127
127 127 127
127 127 127
127 127 127
127 127 127
127 127 127
231 231 231
231 231 231
231 231 231
231 231 231
231 231 231
231 231 231
231 231 231
231 231 231
231 231 231
231 231 231
231 231 231
231 231 231
231 231 231
231 231 231
231 231 231
231 231 231
231 231 231
231 231 231
231 231 231
231 231 231
231 231 231
231 231 231
231 231 231
231 231 231
231 231 231
231 231 231
231 231 231
231 231 231
231 231 231
231 231 231
231 231 231
231 231 231
231 231 231
231 231 231
231 231 231
231 231 231
231 231 231
231 231 231
231 231 231
231 231 231
231 231 231
231 231 231
231 231 231
231 231 231
231 231 231
231 231 231
231 231 231
231 231 231
231 231 231
231 231 231
231 231 231
127 127 127
127 127 127
127 127 127
127 127 127
127 127 127
127 127 127
127 127 127
127 127 127
127 127 127
231 231 231
231 231 231
231 231 231
231 231 231
231 231 231
231 231 231
231 231 231
231 231 231
231 231 231
231 231 231
231 231 231
231 231 231
231 231 231
231 231 231
231 231 231
231 231 231
231 231 231
231 231 231
231 231 231
231 231 231
231 231 231
231 231 231
231 231 231
231 231 231
231 231 231
231 231 231
231 231 231
231 231 231
231 231 231
231 231 231
231 231 231
231 231 231
231 231 231
231 231 231
231 231 231
231 231 231
231 231 231
231 231 231
231 231 231
231 231 231
231 231 231
231 231 231
231 231 231
231 231 231
231 231 231
231 231 231
231 231 231
231 231 231
231 231 231
231 231 231
231 231 231
231 231 231
231 231 231
231 231 231
231 231 231
127 127 127
127 127 127
127 127 127
231 231 231
231 231 231
231 231 231
231 231 231
231 231 231
231 231 231
231 231 231
231 231 231
231 231 231
231 231 231
231 231 231
231 231 231
231 231 231
231 231 231
231 231 231
231 231 231
231 231 231
231 231 231
231 231 231
231 231 231
231 231 231
231 231 231
231 231 231
231 231 231
231 231 231
231 231 231
231 231 231
231 231 231
231 231 231
231 231 231
231 231 231
231 231 231
231 231 231
231 231 231
231 231 231
231 231 231
231 231 231
231 231 231
231 231 231
231 231 231
231 231 231
231 231 231
231 231 231
231 231 231
231 231 231
231 231 231
231 231 231
231 231 231
231 231 231
231 231 231
231 231 231
231 231 231
231 231 231
231 231 231
231 231 231
231 231 231
231 231 231
231 231 231
231 231 231
231 231 231
231 231 231
231 231 231
231 231 231
231 231 231
231 231 231
231 231 231
231 231 231
231 231 231
231 231 231
231 231 231
231 231 231
231 231 231
231 231 231
231 231 231
231 231 231
231 231 231
231 231 231
231 231 231
231 231 231
231 231 231
231 231 231
231 231 231
231 231 231
231 231 231
231 231 231
231 231 231
231 231 231
231 231 231
231 231 231
231 231 231
231 231 231
231 231 231
231 231 231
231 231 231
231 231 231
231 231 231
231 231 231
231 231 231
231 231 231
231 231 231
231 231 231
231 231 231
231 231 231
231 231 231
231 231 231
231 231 231
231 231 231
231 231 231
231 231 231
231 231 231
231 231 231
231 231 231
231 231 231
231 231 231
231 231 231
231 231 231
231 231 231
231 231 231
231 231 231
231 231 231
231 231 231
231 231 231
231 231 231
231 231 231
231 231 231
231 231 231
231 231 231
231 231 231
231 231 231
231 231 231
231 231 231
231 231 231
231 231 231
231 231 231
231 231 231
231 231 231
231 231 231
231 231 231
231 231 231
231 231 231
231 231 231
231 231 231
231 231 231
231 231 231
231 231 231
231 231 231
231 231 231
231 231 231
231 231 231
231 231 231
231 231 231
231 231 231
231 231 231
231 231 231
231 231 231
231 231 231
231 231 231
231 231 231
231 231 231
231 231 231
231 231 231
231 231 231
231 231 231
231 231 231
231 231 231
231 231 231
231 231 231
231 231 231
231 231 231
231 231 231
231 231 231
231 231 231
231 231 231
231 231 231
231 231 231
231 231 231
231 231 231
231 231 231
231 231 231
231 231 231
231 231 231
231 231 231
231 231 231
231 231 231
231 231 231
231 231 231
231 231 231
231 231 231
231 231 231
231 231 231
231 231 231
231 231 231
231 231 231
231 231 231
231 231 231
231 231 231
231 231 231
231 231 231
231 231 231
231 231 231
231 231 231
231 231 231
231 231 231
231 231 231
231 231 231
231 231 231
231 231 231
231 231 231
231 231 231
231 231 231
231 231 231
231 231 231
231 231 231
231 231 231
231 231 231
231 231 231
231 231 231
231 231 231
231 231 231
231 231 231
231 231 231
231 231 231
231 231 231
231 231 231
231 231 231
231 231 231
231 231 231
231 231 231
231 231 231
231 231 231
231 231 231
231 231 231
231 231 231
231 231 231
231 231 231
231 231 231
231 231 231
231 231 231
231 231 231
231 231 231
231 231 231
231 231 231
231 231 231
231 231 231
231 231 231
231 231 231
231 231 231
231 231 231
231 231 231
231 231 231
231 231 231
231 231 231
231 231 231
231 231 231
231 231 231
231 231 231
231 231 231
231 231 231
231 231 231
231 231 231
231 231 231
231 231 231
231 231 231
231 231 231
231 231 231
231 231 231
231 231 231
231 231 231
231 231 231
231 231 231
231 231 231
231 231 231
231 231 231
231 231 231
231 231 231
231 231 231
231 231 231
231 231 231
231 231 231
231 231 231
231 231 231
231 231 231
231 231 231
231 231 231
231 231 231
231 231 231
231 231 231
231 231 231
231 231 231
231 231 231
231 231 231
231 231 231
231 231 231
231 231 231
231 231 231
231 231 231
231 231 231
231 231 231
231 231 231
231 231 231
231 231 231
231 231 231
231 231 231
231 231 231
231 231 231
231 231 231
231 231 231
231 231 231
231 231 231
231 231 231
231 231 231
231 231 231
231 231 231
231 231 231
231 231 231
231 231 231
231 231 231
231 231 231
231 231 231
231 231 231
231 231 231
231 231 231
231 231 231
231 231 231
231 231 231
231 231 231
231 231 231
231 231 231
231 231 231
231 231 231
231 231 231
231 231 231
231 231 231
231 231 231
231 231 231
231 231 231
231 231 231
231 231 231
231 231 231
231 231 231
231 231 231
231 231 231
231 231 231
231 231 231
231 231 231
231 231 231
231 231 231
231 231 231
231 231 231
231 231 231
231 231 231
231 231 231
231 231 231
231 231 231
231 231 231
231 231 231
231 231 231
231 231 231
231 231 231
231 231 231
231 231 231
231 231 231
231 231 231
231 231 231
231 231 231
231 231 231
231 231 231
231 231 231
231 231 231
231 231 231
231 231 231
231 231 231
231 231 231
231 231 231
231 231 231
231 231 231
231 231 231
231 231 231
231 231 231
231 231 231
231 231 231
231 231 231
231 231 231
231 231 231
231 231 231
231 231 231
231 231 231
231 231 231
231 231 231
231 231 231
231 231 231
231 231 231
231 231 231
231 231 231
231 231 231
231 231 231
231 231 231
231 231 231
231 231 231
231 231 231
231 231 231
231 231 231
231 231 231
231 231 231
231 231 231
231 231 231
231 231 231
231 231 231
231 231 231
231 231 231
231 231 231
231 231 231
231 231 231
231 231 231
231 231 231
231 231 231
231 231 231
231 231 231
231 231 231
231 231 231
231 231 231
231 231 231
231 231 231
231 231 231
231 231 231
231 231 231
231 231 231
231 231 231
231 231 231
231 231 231
231 231 231
231 231 231
231 231 231
231 231 231
231 231 231
231 231 231
231 231 231
231 231 231
231 231 231
231 231 231
231 231 231
231 231 231
231 231 231
231 231 231
231 231 231
231 231 231
231 231 231
231 231 231
231 231 231
231 231 231
231 231 231
231 231 231
231 231 231
231 231 231
231 231 231
231 231 231
231 231 231
231 231 231
231 231 231
231 231 231
231 231 231
231 231 231
231 231 231
231 231 231
231 231 231
231 231 231
231 231 231
231 231 231
231 231 231
231 231 231
231 231 231
231 231 231
231 231 231
231 231 231
231 231 231
231 231 231
231 231 231
231 231 231
231 231 231
231 231 231
231 231 231
231 231 231
231 231 231
231 231 231
231 231 231
231 231 231
231 231 231
231 231 231
231 231 231
231 231 231
231 231 231
231 231 231
231 231 231
231 231 231
231 231 231
231 231 231
231 231 231
231 231 231
231 231 231
231 231 231
231 231 231
231 231 231
231 231 231
231 231 231
231 231 231
231 231 231
231 231 231
231 231 231
231 231 231
231 231 231
231 231 231
231 231 231
231 231 231
231 231 231
231 231 231
231 231 231
231 231 231
231 231 231
231 231 231
231 231 231
231 231 231
231 231 231
231 231 231
231 231 231
231 231 231
231 231 231
231 231 231
231 231 231
231 231 231
231 231 231
231 231 231
231 231 231
231 231 231
231 231 231
231 231 231
231 231 231
231 231 231
231 231 231
231 231 231
231 231 231
231 231 231
231 231 231
231 231 231
231 231 231
231 231 231
231 231 231
231 231 231
231 231 231
231 231 231
231 231 231
231 231 231
231 231 231
231 231 231
231 231 231
231 231 231
231 231 231
231 231 231
231 231 231
231 231 231
231 231 231
231 231 231
231 231 231
231 231 231
231 231 231
231 231 231
231 231 231
231 231 231
231 231 231
231 231 231
231 231 231
231 231 231
231 231 231
231 231 231
231 231 231
231 231 231
231 231 231
231 231 231
231 231 231
231 231 231
231 231 231
231 231 231
231 231 231
231 231 231
231 231 231
231 231 231
231 231 231
231 231 231
231 231 231
231 231 231
231 231 231
231 231 231
231 231 231
231 231 231
231 231 231
231 231 231
231 231 231
231 231 231
231 231 231
231 231 231
231 231 231
231 231 231
231 231 231
231 231 231
231 231 231
231 231 231
231 231 231
231 231 231
231 231 231
231 231 231
231 231 231
231 231 231
231 231 231
231 231 231
231 231 231
231 231 231
231 231 231
231 231 231
231 231 231
231 231 231
231 231 231
231 231 231
231 231 231
231 231 231
231 231 231
231 231 231
231 231 231
231 231 231
231 231 231
231 231 231
231 231 231
231 231 231
231 231 231
231 231 231
231 231 231
231 231 231
