<?xml version="1.0" standalone="no"?>
<!DOCTYPE svg PUBLIC "-//W3C//DTD SVG 20010904//EN"
 "http://www.w3.org/TR/2001/REC-SVG-20010904/DTD/svg10.dtd">
<svg version="1.0" xmlns="http://www.w3.org/2000/svg"
 width="1207.000000pt" height="1280.000000pt" viewBox="0 0 1207.000000 1280.000000"
 preserveAspectRatio="xMidYMid meet">
<g transform="translate(0.000000,1280.000000) scale(0.100000,-0.100000)"
fill="#000000" stroke="none">
<path d="M5699 12796 c-7 -8 -306 -44 -394 -48 l-60 -3 -147 -804 c-81 -442
-149 -805 -150 -807 -2 -2 -75 -24 -162 -49 -311 -90 -619 -215 -888 -360 -88
-48 -165 -84 -172 -82 -7 3 -304 215 -660 472 -357 256 -654 464 -660 462 -18
-7 -230 -180 -356 -291 -222 -196 -494 -479 -693 -724 l-59 -71 456 -665 c251
-366 456 -670 456 -675 0 -6 -15 -34 -33 -63 -57 -90 -184 -329 -240 -454 -99
-219 -214 -539 -259 -723 -8 -30 -20 -58 -28 -63 -8 -5 -367 -64 -798 -132
-431 -68 -784 -125 -786 -127 -6 -6 -34 -283 -47 -449 -20 -274 -21 -449 -5
-700 24 -359 26 -379 45 -384 9 -3 360 -66 781 -141 421 -75 774 -140 786
-144 15 -7 24 -25 33 -67 87 -390 277 -859 504 -1243 44 -74 54 -99 46 -113
-5 -10 -217 -302 -469 -648 -253 -347 -460 -636 -460 -643 0 -34 391 -467 588
-651 189 -177 438 -391 469 -403 6 -3 306 197 665 445 359 247 662 454 673
459 17 9 35 2 105 -40 125 -74 395 -207 552 -271 226 -93 578 -201 751 -232
20 -3 40 -11 43 -16 3 -5 30 -165 60 -355 108 -690 195 -1218 202 -1224 28
-26 772 -39 1074 -19 192 13 421 38 429 48 6 6 153 780 259 1362 23 124 43
232 46 241 3 10 48 29 132 53 366 110 776 294 1077 485 55 35 114 72 131 83
l32 19 647 -471 648 -471 26 24 c14 13 85 75 156 139 166 148 430 417 566 578
97 114 275 338 292 367 5 8 -156 249 -416 625 -233 337 -445 643 -470 681
l-46 67 92 188 c162 328 287 682 357 1012 12 58 27 110 34 116 6 6 362 66 791
134 429 68 783 126 786 129 9 8 29 272 36 466 4 99 0 222 -11 360 -27 333 -75
719 -92 734 -5 4 -364 72 -799 151 -434 79 -795 148 -802 154 -6 6 -30 67 -53
136 -97 291 -256 637 -410 894 -40 66 -74 125 -77 132 -2 7 208 303 467 659
259 356 469 652 467 658 -9 22 -198 241 -339 393 -133 145 -366 367 -509 487
-119 101 -282 227 -292 227 -5 0 -308 -206 -674 -457 -366 -252 -675 -462
-687 -466 -16 -7 -45 4 -126 49 -274 150 -645 297 -949 378 -78 21 -86 25 -94
52 -4 16 -62 373 -128 794 -66 421 -123 768 -127 772 -8 7 -243 33 -457 49
-167 13 -667 24 -676 15z m506 -4326 c508 -59 957 -334 1231 -755 154 -238
241 -496 266 -790 20 -238 -20 -498 -113 -730 -205 -512 -645 -886 -1189
-1011 -240 -55 -491 -55 -730 0 -941 216 -1500 1167 -1230 2093 225 773 980
1282 1765 1193z"/>
</g>
</svg>
